<svg width="24" height="24" viewBox="0 0 24 24" fill="none" xmlns="http://www.w3.org/2000/svg">
<path d="M6.97473 18.309L5.48266 19.5025L5.47053 19.5122C4.66307 20.1578 4.25813 20.4815 3.91716 20.4815C3.76985 20.4816 3.6244 20.4485 3.49167 20.3846C3.35894 20.3207 3.24234 20.2277 3.15057 20.1124C2.93713 19.8451 2.93713 19.3233 2.93713 18.2796V7.04897C2.93713 5.95244 2.93713 5.40417 3.15057 4.98514C3.33829 4.61671 3.63783 4.31717 4.00626 4.12945C4.42529 3.91602 4.97356 3.91602 6.07009 3.91602H17.4271C18.5236 3.91602 19.0719 3.91602 19.4899 4.12945C19.8587 4.31701 20.1586 4.61656 20.3466 4.98514C20.56 5.40319 20.56 5.95146 20.56 7.04603V14.4937C20.56 15.5863 20.56 16.1345 20.3466 16.5536C20.1589 16.922 19.8593 17.2215 19.4909 17.4093C19.0728 17.6227 18.5246 17.6227 17.43 17.6227H8.93087C8.52359 17.6227 8.32092 17.6227 8.12609 17.6628C7.95182 17.6987 7.78604 17.7568 7.62874 17.8371C7.45349 17.9262 7.29586 18.0515 6.98452 18.3012L6.97473 18.309Z" stroke="#717171" stroke-linecap="round" stroke-linejoin="round"/>
</svg>
