<?xml version="1.0" encoding="UTF-8"?>
<svg xmlns="http://www.w3.org/2000/svg"
     viewBox="0 0 1440 960"
     preserveAspectRatio="xMidYMid meet"
     role="img"
     aria-labelledby="title desc">
  <title id="title">EndlessForm chair genealogy V2</title>
  <desc id="desc">A dense hierarchical network composed of reusable vector chair symbols.</desc>
  <metadata>
    Editorial vector reconstruction for an interactive mobile/web page.
    AC14, OD A2 and DN A9 are simplified from user-supplied frontal product references.
    Other chair families are stylized editorial interpretations, not production CAD.
  </metadata>

  <defs>
    <style><![CDATA[
      .background { fill: #ffffff; }
      .edge {
        stroke: #c0c3c5;
        stroke-width: 1.15;
        opacity: .76;
        fill: none;
        vector-effect: non-scaling-stroke;
        stroke-linecap: round;
      }
      .edge-trunk {
        stroke: #a4a8ab;
        stroke-width: 1.65;
        opacity: .92;
      }
      .node {
        cursor: pointer;
        transition: opacity .18s ease;
      }
      .node use {
        transition: filter .18s ease, opacity .18s ease;
      }
      .node:hover use {
        filter: drop-shadow(0 4px 5px rgba(20, 24, 28, .18));
      }
      .root-title {
        font-family: Arial, Helvetica, sans-serif;
        font-size: 9px;
        letter-spacing: 2.4px;
        fill: #272c30;
        font-weight: 600;
      }
      .root-subtitle {
        font-family: Arial, Helvetica, sans-serif;
        font-size: 5.5px;
        letter-spacing: 1.5px;
        fill: #8b9094;
      }
    ]]></style>
    <symbol id="chair-ac14" viewBox="0 0 100 130">
  <g stroke="#263039" stroke-width="1.15" stroke-linejoin="round">
    <path fill="#6f7b84" d="M23 9 L41 4 L52 11 L67 5 L81 13 L86 29 L84 66 L73 78 L27 78 L17 66 L16 29 Z"/>
    <path fill="#aeb8bf" d="M23 9 L41 4 L34 30 L16 29 Z"/>
    <path fill="#8e99a1" d="M41 4 L52 11 L50 40 L34 30 Z"/>
    <path fill="#707b83" d="M52 11 L67 5 L68 31 L50 40 Z"/>
    <path fill="#58636c" d="M67 5 L81 13 L84 31 L68 31 Z"/>
    <path fill="#3f4a53" d="M16 29 L34 30 L50 40 L25 49 Z"/>
    <path fill="#505b64" d="M34 30 L50 40 L50 58 L25 49 Z"/>
    <path fill="#3c4750" d="M50 40 L68 31 L84 31 L75 49 Z"/>
    <path fill="#59646d" d="M50 40 L75 49 L50 58 Z"/>
    <path fill="#65717a" d="M25 49 L50 58 L27 69 L17 66 Z"/>
    <path fill="#7d8991" d="M50 58 L75 49 L84 66 L73 69 Z"/>
    <path fill="#4d5861" d="M27 69 L50 58 L73 69 L68 78 L32 78 Z"/>
    <path fill="#59646d" d="M32 78 L46 80 L38 124 L29 126 Z"/>
    <path fill="#414b54" d="M54 80 L68 78 L72 126 L63 124 Z"/>
    <path fill="#4a555e" d="M28 78 L38 80 L22 115 L16 114 Z"/>
    <path fill="#4a555e" d="M62 80 L72 78 L84 114 L78 115 Z"/>
  </g>
</symbol>
<symbol id="chair-oda2" viewBox="0 0 100 130">
  <g stroke="#7e858a" stroke-width="1.1" stroke-linejoin="round">
    <path fill="#d5d9dc" d="M14 18 L33 5 L50 14 L67 5 L86 18 L88 48 L78 66 L22 66 L12 48 Z"/>
    <path fill="#b9bec2" d="M14 18 L33 5 L33 34 L12 48 Z"/>
    <path fill="#e7e9ea" d="M33 5 L50 14 L50 38 L33 34 Z"/>
    <path fill="#c8cccf" d="M50 14 L67 5 L67 34 L50 38 Z"/>
    <path fill="#aeb4b8" d="M67 5 L86 18 L88 48 L67 34 Z"/>
    <path fill="#f3f4f4" d="M30 31 L50 33 L70 31 L69 40 L31 40 Z"/>
    <path fill="#151719" d="M18 49 L35 43 L42 54 L24 55 Z"/>
    <path fill="#151719" d="M82 49 L65 43 L58 54 L76 55 Z"/>
    <path fill="#2d3033" d="M22 58 L50 63 L78 58 L76 72 L50 78 L24 72 Z"/>
    <path fill="#d7dbdd" d="M24 72 L50 78 L76 72 L70 82 L30 82 Z"/>
    <path fill="#c2c7ca" d="M30 82 L43 84 L35 124 L28 125 Z"/>
    <path fill="#9da4a8" d="M57 84 L70 82 L72 125 L65 124 Z"/>
    <path fill="#bcc1c4" d="M29 82 L39 84 L20 116 L15 114 Z"/>
    <path fill="#bcc1c4" d="M61 84 L71 82 L85 114 L80 116 Z"/>
  </g>
</symbol>
<symbol id="chair-dna9" viewBox="0 0 100 130">
  <g stroke="#141414" stroke-width="1.1" stroke-linejoin="round">
    <path fill="#1b1b1d" d="M12 9 L38 4 L50 35 L62 4 L88 9 L91 35 L76 61 L50 69 L24 61 L9 35 Z"/>
    <path fill="#2b2b2e" d="M12 9 L38 4 L50 35 L9 35 Z"/>
    <path fill="#353538" d="M62 4 L88 9 L91 35 L50 35 Z"/>
    <path fill="#111113" d="M9 35 L50 35 L24 61 Z"/>
    <path fill="#252528" d="M91 35 L50 35 L76 61 Z"/>
    <path fill="#f4f4f4" d="M27 39 L44 41 L42 49 L35 47 Z"/>
    <path fill="#f4f4f4" d="M73 39 L56 41 L58 49 L65 47 Z"/>
    <path fill="#161618" d="M24 61 L50 69 L76 61 L79 78 L66 84 L34 84 L21 78 Z"/>
    <path fill="#f5f5f5" d="M22 70 L40 68 L50 75 L60 68 L78 70 L68 79 L50 77 L32 79 Z"/>
    <path fill="#151517" d="M31 83 L43 85 L34 125 L27 126 Z"/>
    <path fill="#151517" d="M57 85 L69 83 L73 126 L66 125 Z"/>
    <path fill="#1f1f21" d="M30 83 L40 86 L19 115 L14 112 Z"/>
    <path fill="#1f1f21" d="M60 86 L70 83 L86 112 L81 115 Z"/>
    <path fill="#f2f2f2" d="M28 96 L36 91 L33 106 L25 109 Z"/>
    <path fill="#f2f2f2" d="M72 96 L64 91 L67 106 L75 109 Z"/>
  </g>
</symbol>
<symbol id="chair-shell-pink" viewBox="0 0 100 130">
  <g stroke="#a73f5e" stroke-width="1" stroke-linejoin="round">
    <path fill="#df6688" d="M17 20 L32 8 L50 13 L68 8 L83 20 L87 44 L77 68 L50 76 L23 68 L13 44 Z"/>
    <path fill="#ec8da8" d="M17 20 L32 8 L33 38 L13 44 Z"/>
    <path fill="#d85379" d="M32 8 L50 13 L50 47 L33 38 Z"/>
    <path fill="#ef9bb3" d="M50 13 L68 8 L67 38 L50 47 Z"/>
    <path fill="#d34a71" d="M68 8 L83 20 L87 44 L67 38 Z"/>
    <path fill="#c9476b" d="M13 44 L33 38 L50 47 L23 68 Z"/>
    <path fill="#e56f8f" d="M87 44 L67 38 L50 47 L77 68 Z"/>
    <path fill="#d7577b" d="M23 68 L50 76 L77 68 L70 81 L30 81 Z"/>
    <path fill="#d75a7b" d="M30 81 L42 84 L34 124 L27 125 Z"/>
    <path fill="#c74368" d="M58 84 L70 81 L73 125 L66 124 Z"/>
    <path fill="#e06b89" d="M29 81 L39 84 L19 115 L14 113 Z"/>
    <path fill="#e06b89" d="M61 84 L71 81 L86 113 L81 115 Z"/>
  </g>
</symbol>
<symbol id="chair-shell-ice" viewBox="0 0 100 130">
  <g stroke="#5c93a5" stroke-width="1" stroke-linejoin="round">
    <path fill="#9de7ed" d="M15 20 L34 7 L50 12 L66 7 L85 20 L88 45 L77 68 L50 76 L23 68 L12 45 Z"/>
    <path fill="#c5f2f5" d="M15 20 L34 7 L32 39 L12 45 Z"/>
    <path fill="#7ed7e1" d="M34 7 L50 12 L50 46 L32 39 Z"/>
    <path fill="#b2edf1" d="M50 12 L66 7 L68 39 L50 46 Z"/>
    <path fill="#67c7d4" d="M66 7 L85 20 L88 45 L68 39 Z"/>
    <path fill="#83d9e1" d="M12 45 L32 39 L50 46 L23 68 Z"/>
    <path fill="#ade8ed" d="M88 45 L68 39 L50 46 L77 68 Z"/>
    <path fill="#77ccd7" d="M23 68 L50 76 L77 68 L70 81 L30 81 Z"/>
    <path fill="#8cd6dd" d="M30 81 L42 84 L34 124 L27 125 Z"/>
    <path fill="#62b9c6" d="M58 84 L70 81 L73 125 L66 124 Z"/>
    <path fill="#92dce3" d="M29 81 L39 84 L19 115 L14 113 Z"/>
    <path fill="#92dce3" d="M61 84 L71 81 L86 113 L81 115 Z"/>
  </g>
</symbol>
<symbol id="chair-shell-orange" viewBox="0 0 100 130">
  <g stroke="#a75b1f" stroke-width="1" stroke-linejoin="round">
    <path fill="#f2a13a" d="M16 16 L35 6 L50 17 L65 6 L84 16 L86 45 L74 67 L50 76 L26 67 L14 45 Z"/>
    <path fill="#ffc66a" d="M16 16 L35 6 L31 38 L14 45 Z"/>
    <path fill="#e98422" d="M35 6 L50 17 L50 46 L31 38 Z"/>
    <path fill="#ffb24a" d="M50 17 L65 6 L69 38 L50 46 Z"/>
    <path fill="#df7c20" d="M65 6 L84 16 L86 45 L69 38 Z"/>
    <path fill="#f9a13e" d="M14 45 L31 38 L50 46 L26 67 Z"/>
    <path fill="#ef8d2d" d="M86 45 L69 38 L50 46 L74 67 Z"/>
    <path fill="#e88427" d="M26 67 L50 76 L74 67 L68 81 L32 81 Z"/>
    <path fill="#d9781f" d="M32 81 L43 84 L35 124 L28 125 Z"/>
    <path fill="#bc661a" d="M57 84 L68 81 L72 125 L65 124 Z"/>
    <path fill="#e78a2c" d="M31 81 L40 84 L20 115 L15 113 Z"/>
    <path fill="#e78a2c" d="M60 84 L69 81 L85 113 L80 115 Z"/>
  </g>
</symbol>
<symbol id="chair-lattice-silver" viewBox="0 0 100 130">
  <g fill="none" stroke="#727a80" stroke-width="4.2" stroke-linejoin="round" stroke-linecap="round">
    <path d="M14 12 L86 12 L82 62 L67 74 L33 74 L18 62 Z"/>
    <path d="M19 18 L39 31 L22 54 M39 31 L51 17 L62 33 L80 18 M39 31 L33 59 L51 48 L67 60 L62 33 M51 48 L51 72"/>
    <path d="M31 74 L42 78 L33 125 M69 74 L58 78 L67 125 M31 74 L18 116 M69 74 L82 116"/>
    <path d="M33 74 L50 81 L67 74"/>
  </g>
</symbol>
<symbol id="chair-lattice-gold" viewBox="0 0 100 130">
  <g fill="none" stroke="#b58a38" stroke-width="4.4" stroke-linejoin="round" stroke-linecap="round">
    <path d="M11 14 L35 6 L50 22 L65 6 L89 14 L82 63 L67 75 L33 75 L18 63 Z"/>
    <path d="M15 18 L34 31 L20 54 M34 31 L50 22 L65 32 L84 18 M34 31 L32 60 L50 49 L68 60 L65 32 M50 49 L50 73"/>
    <path d="M33 75 L43 79 L34 125 M67 75 L57 79 L66 125 M33 75 L19 116 M67 75 L81 116"/>
    <path d="M33 75 L50 82 L67 75"/>
  </g>
</symbol>
<symbol id="chair-lattice-black" viewBox="0 0 100 130">
  <g fill="none" stroke="#1c1d1f" stroke-width="4.7" stroke-linejoin="round" stroke-linecap="round">
    <path d="M13 10 L87 10 L85 60 L69 75 L31 75 L15 60 Z"/>
    <path d="M17 17 L40 30 L22 55 M40 30 L51 16 L61 31 L82 18 M40 30 L34 61 L51 49 L67 61 L61 31 M51 49 L51 73"/>
    <path d="M31 75 L42 79 L33 125 M69 75 L58 79 L67 125 M31 75 L18 116 M69 75 L82 116"/>
    <path d="M31 75 L50 82 L69 75"/>
  </g>
</symbol>
<symbol id="chair-wing" viewBox="0 0 100 130">
  <g stroke="#45494d" stroke-width="1.15" stroke-linejoin="round">
    <path fill="#292b2e" d="M8 20 L37 6 L50 37 L63 6 L92 20 L82 60 L67 72 L33 72 L18 60 Z"/>
    <path fill="#3c4044" d="M8 20 L37 6 L50 37 L18 60 Z"/>
    <path fill="#565b60" d="M92 20 L63 6 L50 37 L82 60 Z"/>
    <path fill="#d8dbdd" d="M20 28 L38 21 L42 40 L25 47 Z"/>
    <path fill="#f1f2f2" d="M80 28 L62 21 L58 40 L75 47 Z"/>
    <path fill="#1f2022" d="M18 60 L50 68 L82 60 L73 80 L27 80 Z"/>
    <path fill="#35383b" d="M27 80 L42 83 L33 124 L26 125 Z"/>
    <path fill="#202224" d="M58 83 L73 80 L74 125 L67 124 Z"/>
    <path fill="#373a3d" d="M26 80 L38 83 L18 115 L13 113 Z"/>
    <path fill="#373a3d" d="M62 83 L74 80 L87 113 L82 115 Z"/>
  </g>
</symbol>
<symbol id="chair-blue-light" viewBox="0 0 100 130">
  <g stroke="#123d58" stroke-width="1.15" stroke-linejoin="round">
    <path fill="#11181e" d="M13 14 L37 5 L50 24 L63 5 L87 14 L89 48 L76 69 L50 77 L24 69 L11 48 Z"/>
    <path fill="#1a2730" d="M13 14 L37 5 L50 24 L11 48 Z"/>
    <path fill="#18232b" d="M87 14 L63 5 L50 24 L89 48 Z"/>
    <path fill="#33b6ff" d="M20 30 L38 22 L43 43 L25 51 Z"/>
    <path fill="#56c8ff" d="M80 30 L62 22 L57 43 L75 51 Z"/>
    <path fill="#0e1419" d="M24 69 L50 77 L76 69 L70 82 L30 82 Z"/>
    <path fill="#35b9ff" d="M30 73 L50 78 L70 73 L64 78 L50 81 L36 78 Z"/>
    <path fill="#121a20" d="M30 82 L42 85 L34 124 L27 125 Z"/>
    <path fill="#11181e" d="M58 85 L70 82 L73 125 L66 124 Z"/>
    <path fill="#171f25" d="M29 82 L39 85 L19 115 L14 113 Z"/>
    <path fill="#171f25" d="M61 85 L71 82 L86 113 L81 115 Z"/>
    <path fill="#39bcff" d="M28 97 L34 92 L33 106 L27 109 Z"/>
    <path fill="#39bcff" d="M72 97 L66 92 L67 106 L73 109 Z"/>
  </g>
</symbol>
<symbol id="chair-facet-green" viewBox="0 0 100 130">
  <g stroke="#355b47" stroke-width="1.05" stroke-linejoin="round">
    <path fill="#4f9d6b" d="M13 16 L31 7 L50 20 L69 7 L87 16 L84 52 L70 68 L50 76 L30 68 L16 52 Z"/>
    <path fill="#8bcaa0" d="M13 16 L31 7 L33 42 L16 52 Z"/>
    <path fill="#5eb47a" d="M31 7 L50 20 L50 46 L33 42 Z"/>
    <path fill="#79c58f" d="M50 20 L69 7 L67 42 L50 46 Z"/>
    <path fill="#3d8a5a" d="M69 7 L87 16 L84 52 L67 42 Z"/>
    <path fill="#4a9f67" d="M16 52 L33 42 L50 46 L30 68 Z"/>
    <path fill="#6dbc82" d="M84 52 L67 42 L50 46 L70 68 Z"/>
    <path fill="#438e5d" d="M30 68 L50 76 L70 68 L66 81 L34 81 Z"/>
    <path fill="#376e4a" d="M34 81 L44 84 L35 124 L28 125 Z"/>
    <path fill="#315f41" d="M56 84 L66 81 L72 125 L65 124 Z"/>
    <path fill="#3e8055" d="M33 81 L41 84 L20 115 L15 113 Z"/>
    <path fill="#3e8055" d="M59 84 L67 81 L85 113 L80 115 Z"/>
  </g>
</symbol>
<symbol id="chair-facet-purple" viewBox="0 0 100 130">
  <g stroke="#514067" stroke-width="1.05" stroke-linejoin="round">
    <path fill="#765a95" d="M16 17 L36 6 L50 19 L64 6 L84 17 L87 47 L75 68 L50 77 L25 68 L13 47 Z"/>
    <path fill="#a58ac1" d="M16 17 L36 6 L32 40 L13 47 Z"/>
    <path fill="#6c548b" d="M36 6 L50 19 L50 46 L32 40 Z"/>
    <path fill="#9477af" d="M50 19 L64 6 L68 40 L50 46 Z"/>
    <path fill="#5d4778" d="M64 6 L84 17 L87 47 L68 40 Z"/>
    <path fill="#765b95" d="M13 47 L32 40 L50 46 L25 68 Z"/>
    <path fill="#8c6da7" d="M87 47 L68 40 L50 46 L75 68 Z"/>
    <path fill="#624b7c" d="M25 68 L50 77 L75 68 L69 81 L31 81 Z"/>
    <path fill="#58436f" d="M31 81 L43 84 L34 124 L27 125 Z"/>
    <path fill="#49385e" d="M57 84 L69 81 L73 125 L66 124 Z"/>
    <path fill="#674e82" d="M30 81 L40 84 L20 115 L15 113 Z"/>
    <path fill="#674e82" d="M60 84 L70 81 L85 113 L80 115 Z"/>
  </g>
</symbol>
  </defs>

  <rect class="background" x="0" y="0" width="1440" height="960"/>
  <g id="edges">
    <line class="edge edge-trunk" data-source="root" data-target="hub-left-main" x1="720" y1="470" x2="410" y2="485"/><line class="edge edge-trunk" data-source="hub-left-main" data-target="hub-left-upper" x1="410" y1="485" x2="245" y2="250"/><line class="edge edge-trunk" data-source="hub-left-main" data-target="hub-left-lower" x1="410" y1="485" x2="545" y2="720"/><line class="edge edge-trunk" data-source="root" data-target="hub-top-main" x1="720" y1="470" x2="705" y2="255"/><line class="edge edge-trunk" data-source="hub-top-main" data-target="hub-top-left" x1="705" y1="255" x2="515" y2="155"/><line class="edge edge-trunk" data-source="hub-top-main" data-target="hub-top-right" x1="705" y1="255" x2="895" y2="165"/><line class="edge edge-trunk" data-source="root" data-target="hub-right-main" x1="720" y1="470" x2="1040" y2="475"/><line class="edge edge-trunk" data-source="hub-right-main" data-target="hub-right-upper" x1="1040" y1="475" x2="1180" y2="300"/><line class="edge edge-trunk" data-source="hub-right-main" data-target="hub-right-far" x1="1040" y1="475" x2="1280" y2="505"/><line class="edge edge-trunk" data-source="hub-right-main" data-target="hub-right-lower" x1="1040" y1="475" x2="1160" y2="710"/><line class="edge edge-trunk" data-source="root" data-target="hub-bottom-main" x1="720" y1="470" x2="860" y2="730"/><line class="edge edge-trunk" data-source="hub-bottom-main" data-target="hub-bottom-left" x1="860" y1="730" x2="690" y2="810"/><line class="edge" data-source="hub-left-main" data-target="leaf-001" x1="410" y1="485" x2="378.6" y2="602.0"/><line class="edge" data-source="hub-left-main" data-target="leaf-002" x1="410" y1="485" x2="319.3" y2="607.9"/><line class="edge" data-source="hub-left-main" data-target="leaf-003" x1="410" y1="485" x2="261.4" y2="578.4"/><line class="edge" data-source="hub-left-main" data-target="leaf-004" x1="410" y1="485" x2="294.9" y2="506.8"/><line class="edge" data-source="hub-left-main" data-target="leaf-005" x1="410" y1="485" x2="269.1" y2="458.3"/><line class="edge" data-source="hub-left-main" data-target="leaf-006" x1="410" y1="485" x2="251.7" y2="385.6"/><line class="edge" data-source="hub-left-main" data-target="leaf-007" x1="410" y1="485" x2="343.6" y2="395.0"/><line class="edge" data-source="hub-left-main" data-target="leaf-008" x1="410" y1="485" x2="374.4" y2="352.2"/><line class="edge" data-source="hub-left-upper" data-target="leaf-009" x1="245" y1="250" x2="146.2" y2="284.0"/><line class="edge" data-source="hub-left-upper" data-target="leaf-010" x1="245" y1="250" x2="127.6" y2="245.2"/><line class="edge" data-source="hub-left-upper" data-target="leaf-011" x1="245" y1="250" x2="123.7" y2="196.9"/><line class="edge" data-source="hub-left-upper" data-target="leaf-012" x1="245" y1="250" x2="172.4" y2="177.4"/><line class="edge" data-source="hub-left-upper" data-target="leaf-013" x1="245" y1="250" x2="194.5" y2="134.8"/><line class="edge" data-source="hub-left-upper" data-target="leaf-014" x1="245" y1="250" x2="239.3" y2="110.6"/><line class="edge" data-source="hub-left-upper" data-target="leaf-015" x1="245" y1="250" x2="277.9" y2="154.5"/><line class="edge" data-source="hub-left-lower" data-target="leaf-016" x1="545" y1="720" x2="558.4" y2="804.3"/><line class="edge" data-source="hub-left-lower" data-target="leaf-017" x1="545" y1="720" x2="519.7" y2="835.8"/><line class="edge" data-source="hub-left-lower" data-target="leaf-018" x1="545" y1="720" x2="466.6" y2="837.8"/><line class="edge" data-source="hub-left-lower" data-target="leaf-019" x1="545" y1="720" x2="472.9" y2="770.5"/><line class="edge" data-source="hub-left-lower" data-target="leaf-020" x1="545" y1="720" x2="429.2" y2="748.1"/><line class="edge" data-source="hub-left-lower" data-target="leaf-021" x1="545" y1="720" x2="404.3" y2="701.1"/><line class="edge" data-source="hub-left-lower" data-target="leaf-022" x1="545" y1="720" x2="462.7" y2="674.4"/><line class="edge" data-source="hub-top-main" data-target="leaf-023" x1="705" y1="255" x2="596.9" y2="226.0"/><line class="edge" data-source="hub-top-main" data-target="leaf-024" x1="705" y1="255" x2="607.4" y2="157.4"/><line class="edge" data-source="hub-top-main" data-target="leaf-025" x1="705" y1="255" x2="660.1" y2="87.4"/><line class="edge" data-source="hub-top-main" data-target="leaf-026" x1="705" y1="255" x2="734.1" y2="146.5"/><line class="edge" data-source="hub-top-main" data-target="leaf-027" x1="705" y1="255" x2="812.7" y2="147.3"/><line class="edge" data-source="hub-top-main" data-target="leaf-028" x1="705" y1="255" x2="864.2" y2="212.3"/><line class="edge" data-source="hub-top-left" data-target="leaf-029" x1="515" y1="155" x2="426.8" y2="169.0"/><line class="edge" data-source="hub-top-left" data-target="leaf-030" x1="515" y1="155" x2="405.3" y2="122.3"/><line class="edge" data-source="hub-top-left" data-target="leaf-031" x1="515" y1="155" x2="410.4" y2="60.1"/><line class="edge" data-source="hub-top-left" data-target="leaf-032" x1="515" y1="155" x2="481.8" y2="73.6"/><line class="edge" data-source="hub-top-left" data-target="leaf-033" x1="515" y1="155" x2="522.3" y2="45.0"/><line class="edge" data-source="hub-top-left" data-target="leaf-034" x1="515" y1="155" x2="588.2" y2="45.0"/><line class="edge" data-source="hub-top-right" data-target="leaf-035" x1="895" y1="165" x2="842.5" y2="70.4"/><line class="edge" data-source="hub-top-right" data-target="leaf-036" x1="895" y1="165" x2="888.3" y2="52.5"/><line class="edge" data-source="hub-top-right" data-target="leaf-037" x1="895" y1="165" x2="948.7" y2="45.0"/><line class="edge" data-source="hub-top-right" data-target="leaf-038" x1="895" y1="165" x2="959.2" y2="106.8"/><line class="edge" data-source="hub-top-right" data-target="leaf-039" x1="895" y1="165" x2="1015.9" y2="128.9"/><line class="edge" data-source="hub-top-right" data-target="leaf-040" x1="895" y1="165" x2="1038.9" y2="187.8"/><line class="edge" data-source="hub-right-main" data-target="leaf-041" x1="1040" y1="475" x2="1071.2" y2="358.7"/><line class="edge" data-source="hub-right-main" data-target="leaf-042" x1="1040" y1="475" x2="1134.9" y2="361.9"/><line class="edge" data-source="hub-right-main" data-target="leaf-043" x1="1040" y1="475" x2="1205.7" y2="397.7"/><line class="edge" data-source="hub-right-main" data-target="leaf-044" x1="1040" y1="475" x2="1167.4" y2="475.0"/><line class="edge" data-source="hub-right-main" data-target="leaf-045" x1="1040" y1="475" x2="1180.4" y2="540.5"/><line class="edge" data-source="hub-right-main" data-target="leaf-046" x1="1040" y1="475" x2="1148.2" y2="604.0"/><line class="edge" data-source="hub-right-main" data-target="leaf-047" x1="1040" y1="475" x2="1067.4" y2="577.2"/><line class="edge" data-source="hub-right-upper" data-target="leaf-048" x1="1180" y1="300" x2="1155.7" y2="202.5"/><line class="edge" data-source="hub-right-upper" data-target="leaf-049" x1="1180" y1="300" x2="1204.8" y2="179.1"/><line class="edge" data-source="hub-right-upper" data-target="leaf-050" x1="1180" y1="300" x2="1265.1" y2="187.9"/><line class="edge" data-source="hub-right-upper" data-target="leaf-051" x1="1180" y1="300" x2="1269.0" y2="254.3"/><line class="edge" data-source="hub-right-upper" data-target="leaf-052" x1="1180" y1="300" x2="1308.5" y2="296.4"/><line class="edge" data-source="hub-right-upper" data-target="leaf-053" x1="1180" y1="300" x2="1300.8" y2="353.8"/><line class="edge" data-source="hub-right-far" data-target="leaf-054" x1="1280" y1="505" x2="1324.8" y2="413.1"/><line class="edge" data-source="hub-right-far" data-target="leaf-055" x1="1280" y1="505" x2="1374.0" y2="430.5"/><line class="edge" data-source="hub-right-far" data-target="leaf-056" x1="1280" y1="505" x2="1406.0" y2="471.6"/><line class="edge" data-source="hub-right-far" data-target="leaf-057" x1="1280" y1="505" x2="1376.8" y2="527.0"/><line class="edge" data-source="hub-right-far" data-target="leaf-058" x1="1280" y1="505" x2="1365.2" y2="572.5"/><line class="edge" data-source="hub-right-far" data-target="leaf-059" x1="1280" y1="505" x2="1344.2" y2="636.6"/><line class="edge" data-source="hub-right-lower" data-target="leaf-060" x1="1160" y1="710" x2="1244.6" y2="672.3"/><line class="edge" data-source="hub-right-lower" data-target="leaf-061" x1="1160" y1="710" x2="1277.3" y2="713.3"/><line class="edge" data-source="hub-right-lower" data-target="leaf-062" x1="1160" y1="710" x2="1280.4" y2="771.9"/><line class="edge" data-source="hub-right-lower" data-target="leaf-063" x1="1160" y1="710" x2="1222.2" y2="792.0"/><line class="edge" data-source="hub-right-lower" data-target="leaf-064" x1="1160" y1="710" x2="1182.1" y2="817.8"/><line class="edge" data-source="hub-right-lower" data-target="leaf-065" x1="1160" y1="710" x2="1127.2" y2="841.8"/><line class="edge" data-source="hub-bottom-main" data-target="leaf-066" x1="860" y1="730" x2="967.5" y2="720.6"/><line class="edge" data-source="hub-bottom-main" data-target="leaf-067" x1="860" y1="730" x2="997.6" y2="780.1"/><line class="edge" data-source="hub-bottom-main" data-target="leaf-068" x1="860" y1="730" x2="983.6" y2="853.6"/><line class="edge" data-source="hub-bottom-main" data-target="leaf-069" x1="860" y1="730" x2="903.6" y2="849.9"/><line class="edge" data-source="hub-bottom-main" data-target="leaf-070" x1="860" y1="730" x2="847.4" y2="874.3"/><line class="edge" data-source="hub-bottom-main" data-target="leaf-071" x1="860" y1="730" x2="772.2" y2="882.1"/><line class="edge" data-source="hub-bottom-main" data-target="leaf-072" x1="860" y1="730" x2="773.6" y2="790.5"/><line class="edge" data-source="hub-bottom-left" data-target="leaf-073" x1="690" y1="810" x2="762.2" y2="872.8"/><line class="edge" data-source="hub-bottom-left" data-target="leaf-074" x1="690" y1="810" x2="733.3" y2="910.2"/><line class="edge" data-source="hub-bottom-left" data-target="leaf-075" x1="690" y1="810" x2="684.4" y2="918.0"/><line class="edge" data-source="hub-bottom-left" data-target="leaf-076" x1="690" y1="810" x2="639.5" y2="905.8"/><line class="edge" data-source="hub-bottom-left" data-target="leaf-077" x1="690" y1="810" x2="589.4" y2="884.7"/><line class="edge" data-source="hub-bottom-left" data-target="leaf-078" x1="690" y1="810" x2="542.6" y2="838.7"/>
  </g>
  <g id="nodes">
    <g id="leaf-001" class="node node-leaf" data-cluster="hub-left-main" data-chair="chair-dna9" transform="translate(378.6 602.0) rotate(0) scale(0.296)"><use href="#chair-dna9" x="-50" y="-65" width="100" height="130"/></g><g id="leaf-002" class="node node-leaf" data-cluster="hub-left-main" data-chair="chair-wing" transform="translate(319.3 607.9) rotate(0) scale(0.311)"><use href="#chair-wing" x="-50" y="-65" width="100" height="130"/></g><g id="leaf-003" class="node node-leaf" data-cluster="hub-left-main" data-chair="chair-oda2" transform="translate(261.4 578.4) rotate(2) scale(0.353)"><use href="#chair-oda2" x="-50" y="-65" width="100" height="130"/></g><g id="leaf-004" class="node node-leaf" data-cluster="hub-left-main" data-chair="chair-ac14" transform="translate(294.9 506.8) rotate(-4) scale(0.360)"><use href="#chair-ac14" x="-50" y="-65" width="100" height="130"/></g><g id="leaf-005" class="node node-leaf" data-cluster="hub-left-main" data-chair="chair-dna9" transform="translate(269.1 458.3) rotate(0) scale(0.327)"><use href="#chair-dna9" x="-50" y="-65" width="100" height="130"/></g><g id="leaf-006" class="node node-leaf" data-cluster="hub-left-main" data-chair="chair-wing" transform="translate(251.7 385.6) rotate(0) scale(0.358)"><use href="#chair-wing" x="-50" y="-65" width="100" height="130"/></g><g id="leaf-007" class="node node-leaf" data-cluster="hub-left-main" data-chair="chair-oda2" transform="translate(343.6 395.0) rotate(4) scale(0.281)"><use href="#chair-oda2" x="-50" y="-65" width="100" height="130"/></g><g id="leaf-008" class="node node-leaf" data-cluster="hub-left-main" data-chair="chair-ac14" transform="translate(374.4 352.2) rotate(-3) scale(0.309)"><use href="#chair-ac14" x="-50" y="-65" width="100" height="130"/></g><g id="leaf-009" class="node node-leaf" data-cluster="hub-left-upper" data-chair="chair-oda2" transform="translate(146.2 284.0) rotate(-2) scale(0.300)"><use href="#chair-oda2" x="-50" y="-65" width="100" height="130"/></g><g id="leaf-010" class="node node-leaf" data-cluster="hub-left-upper" data-chair="chair-shell-ice" transform="translate(127.6 245.2) rotate(3) scale(0.349)"><use href="#chair-shell-ice" x="-50" y="-65" width="100" height="130"/></g><g id="leaf-011" class="node node-leaf" data-cluster="hub-left-upper" data-chair="chair-ac14" transform="translate(123.7 196.9) rotate(-3) scale(0.293)"><use href="#chair-ac14" x="-50" y="-65" width="100" height="130"/></g><g id="leaf-012" class="node node-leaf" data-cluster="hub-left-upper" data-chair="chair-oda2" transform="translate(172.4 177.4) rotate(3) scale(0.350)"><use href="#chair-oda2" x="-50" y="-65" width="100" height="130"/></g><g id="leaf-013" class="node node-leaf" data-cluster="hub-left-upper" data-chair="chair-shell-pink" transform="translate(194.5 134.8) rotate(-2) scale(0.289)"><use href="#chair-shell-pink" x="-50" y="-65" width="100" height="130"/></g><g id="leaf-014" class="node node-leaf" data-cluster="hub-left-upper" data-chair="chair-shell-ice" transform="translate(239.3 110.6) rotate(-3) scale(0.333)"><use href="#chair-shell-ice" x="-50" y="-65" width="100" height="130"/></g><g id="leaf-015" class="node node-leaf" data-cluster="hub-left-upper" data-chair="chair-ac14" transform="translate(277.9 154.5) rotate(4) scale(0.325)"><use href="#chair-ac14" x="-50" y="-65" width="100" height="130"/></g><g id="leaf-016" class="node node-leaf" data-cluster="hub-left-lower" data-chair="chair-facet-green" transform="translate(558.4 804.3) rotate(-2) scale(0.360)"><use href="#chair-facet-green" x="-50" y="-65" width="100" height="130"/></g><g id="leaf-017" class="node node-leaf" data-cluster="hub-left-lower" data-chair="chair-facet-purple" transform="translate(519.7 835.8) rotate(0) scale(0.359)"><use href="#chair-facet-purple" x="-50" y="-65" width="100" height="130"/></g><g id="leaf-018" class="node node-leaf" data-cluster="hub-left-lower" data-chair="chair-shell-orange" transform="translate(466.6 837.8) rotate(4) scale(0.279)"><use href="#chair-shell-orange" x="-50" y="-65" width="100" height="130"/></g><g id="leaf-019" class="node node-leaf" data-cluster="hub-left-lower" data-chair="chair-facet-green" transform="translate(472.9 770.5) rotate(-3) scale(0.308)"><use href="#chair-facet-green" x="-50" y="-65" width="100" height="130"/></g><g id="leaf-020" class="node node-leaf" data-cluster="hub-left-lower" data-chair="chair-shell-pink" transform="translate(429.2 748.1) rotate(0) scale(0.338)"><use href="#chair-shell-pink" x="-50" y="-65" width="100" height="130"/></g><g id="leaf-021" class="node node-leaf" data-cluster="hub-left-lower" data-chair="chair-ac14" transform="translate(404.3 701.1) rotate(4) scale(0.364)"><use href="#chair-ac14" x="-50" y="-65" width="100" height="130"/></g><g id="leaf-022" class="node node-leaf" data-cluster="hub-left-lower" data-chair="chair-oda2" transform="translate(462.7 674.4) rotate(3) scale(0.298)"><use href="#chair-oda2" x="-50" y="-65" width="100" height="130"/></g><g id="leaf-023" class="node node-leaf" data-cluster="hub-top-main" data-chair="chair-shell-pink" transform="translate(596.9 226.0) rotate(3) scale(0.301)"><use href="#chair-shell-pink" x="-50" y="-65" width="100" height="130"/></g><g id="leaf-024" class="node node-leaf" data-cluster="hub-top-main" data-chair="chair-shell-ice" transform="translate(607.4 157.4) rotate(-3) scale(0.280)"><use href="#chair-shell-ice" x="-50" y="-65" width="100" height="130"/></g><g id="leaf-025" class="node node-leaf" data-cluster="hub-top-main" data-chair="chair-shell-orange" transform="translate(660.1 87.4) rotate(4) scale(0.317)"><use href="#chair-shell-orange" x="-50" y="-65" width="100" height="130"/></g><g id="leaf-026" class="node node-leaf" data-cluster="hub-top-main" data-chair="chair-facet-purple" transform="translate(734.1 146.5) rotate(-4) scale(0.336)"><use href="#chair-facet-purple" x="-50" y="-65" width="100" height="130"/></g><g id="leaf-027" class="node node-leaf" data-cluster="hub-top-main" data-chair="chair-ac14" transform="translate(812.7 147.3) rotate(0) scale(0.288)"><use href="#chair-ac14" x="-50" y="-65" width="100" height="130"/></g><g id="leaf-028" class="node node-leaf" data-cluster="hub-top-main" data-chair="chair-shell-pink" transform="translate(864.2 212.3) rotate(-2) scale(0.278)"><use href="#chair-shell-pink" x="-50" y="-65" width="100" height="130"/></g><g id="leaf-029" class="node node-leaf" data-cluster="hub-top-left" data-chair="chair-ac14" transform="translate(426.8 169.0) rotate(-3) scale(0.338)"><use href="#chair-ac14" x="-50" y="-65" width="100" height="130"/></g><g id="leaf-030" class="node node-leaf" data-cluster="hub-top-left" data-chair="chair-oda2" transform="translate(405.3 122.3) rotate(-2) scale(0.313)"><use href="#chair-oda2" x="-50" y="-65" width="100" height="130"/></g><g id="leaf-031" class="node node-leaf" data-cluster="hub-top-left" data-chair="chair-shell-ice" transform="translate(410.4 60.1) rotate(3) scale(0.271)"><use href="#chair-shell-ice" x="-50" y="-65" width="100" height="130"/></g><g id="leaf-032" class="node node-leaf" data-cluster="hub-top-left" data-chair="chair-ac14" transform="translate(481.8 73.6) rotate(0) scale(0.332)"><use href="#chair-ac14" x="-50" y="-65" width="100" height="130"/></g><g id="leaf-033" class="node node-leaf" data-cluster="hub-top-left" data-chair="chair-shell-pink" transform="translate(522.3 45.0) rotate(-4) scale(0.365)"><use href="#chair-shell-pink" x="-50" y="-65" width="100" height="130"/></g><g id="leaf-034" class="node node-leaf" data-cluster="hub-top-left" data-chair="chair-oda2" transform="translate(588.2 45.0) rotate(2) scale(0.327)"><use href="#chair-oda2" x="-50" y="-65" width="100" height="130"/></g><g id="leaf-035" class="node node-leaf" data-cluster="hub-top-right" data-chair="chair-lattice-silver" transform="translate(842.5 70.4) rotate(0) scale(0.291)"><use href="#chair-lattice-silver" x="-50" y="-65" width="100" height="130"/></g><g id="leaf-036" class="node node-leaf" data-cluster="hub-top-right" data-chair="chair-lattice-gold" transform="translate(888.3 52.5) rotate(4) scale(0.299)"><use href="#chair-lattice-gold" x="-50" y="-65" width="100" height="130"/></g><g id="leaf-037" class="node node-leaf" data-cluster="hub-top-right" data-chair="chair-lattice-black" transform="translate(948.7 45.0) rotate(-2) scale(0.345)"><use href="#chair-lattice-black" x="-50" y="-65" width="100" height="130"/></g><g id="leaf-038" class="node node-leaf" data-cluster="hub-top-right" data-chair="chair-oda2" transform="translate(959.2 106.8) rotate(0) scale(0.369)"><use href="#chair-oda2" x="-50" y="-65" width="100" height="130"/></g><g id="leaf-039" class="node node-leaf" data-cluster="hub-top-right" data-chair="chair-lattice-silver" transform="translate(1015.9 128.9) rotate(0) scale(0.326)"><use href="#chair-lattice-silver" x="-50" y="-65" width="100" height="130"/></g><g id="leaf-040" class="node node-leaf" data-cluster="hub-top-right" data-chair="chair-wing" transform="translate(1038.9 187.8) rotate(0) scale(0.334)"><use href="#chair-wing" x="-50" y="-65" width="100" height="130"/></g><g id="leaf-041" class="node node-leaf" data-cluster="hub-right-main" data-chair="chair-lattice-gold" transform="translate(1071.2 358.7) rotate(-3) scale(0.355)"><use href="#chair-lattice-gold" x="-50" y="-65" width="100" height="130"/></g><g id="leaf-042" class="node node-leaf" data-cluster="hub-right-main" data-chair="chair-lattice-silver" transform="translate(1134.9 361.9) rotate(-3) scale(0.321)"><use href="#chair-lattice-silver" x="-50" y="-65" width="100" height="130"/></g><g id="leaf-043" class="node node-leaf" data-cluster="hub-right-main" data-chair="chair-lattice-black" transform="translate(1205.7 397.7) rotate(4) scale(0.296)"><use href="#chair-lattice-black" x="-50" y="-65" width="100" height="130"/></g><g id="leaf-044" class="node node-leaf" data-cluster="hub-right-main" data-chair="chair-wing" transform="translate(1167.4 475.0) rotate(2) scale(0.340)"><use href="#chair-wing" x="-50" y="-65" width="100" height="130"/></g><g id="leaf-045" class="node node-leaf" data-cluster="hub-right-main" data-chair="chair-shell-orange" transform="translate(1180.4 540.5) rotate(-2) scale(0.303)"><use href="#chair-shell-orange" x="-50" y="-65" width="100" height="130"/></g><g id="leaf-046" class="node node-leaf" data-cluster="hub-right-main" data-chair="chair-ac14" transform="translate(1148.2 604.0) rotate(2) scale(0.315)"><use href="#chair-ac14" x="-50" y="-65" width="100" height="130"/></g><g id="leaf-047" class="node node-leaf" data-cluster="hub-right-main" data-chair="chair-lattice-gold" transform="translate(1067.4 577.2) rotate(-3) scale(0.367)"><use href="#chair-lattice-gold" x="-50" y="-65" width="100" height="130"/></g><g id="leaf-048" class="node node-leaf" data-cluster="hub-right-upper" data-chair="chair-shell-orange" transform="translate(1155.7 202.5) rotate(4) scale(0.314)"><use href="#chair-shell-orange" x="-50" y="-65" width="100" height="130"/></g><g id="leaf-049" class="node node-leaf" data-cluster="hub-right-upper" data-chair="chair-facet-green" transform="translate(1204.8 179.1) rotate(2) scale(0.329)"><use href="#chair-facet-green" x="-50" y="-65" width="100" height="130"/></g><g id="leaf-050" class="node node-leaf" data-cluster="hub-right-upper" data-chair="chair-shell-pink" transform="translate(1265.1 187.9) rotate(0) scale(0.274)"><use href="#chair-shell-pink" x="-50" y="-65" width="100" height="130"/></g><g id="leaf-051" class="node node-leaf" data-cluster="hub-right-upper" data-chair="chair-shell-ice" transform="translate(1269.0 254.3) rotate(0) scale(0.297)"><use href="#chair-shell-ice" x="-50" y="-65" width="100" height="130"/></g><g id="leaf-052" class="node node-leaf" data-cluster="hub-right-upper" data-chair="chair-ac14" transform="translate(1308.5 296.4) rotate(-2) scale(0.309)"><use href="#chair-ac14" x="-50" y="-65" width="100" height="130"/></g><g id="leaf-053" class="node node-leaf" data-cluster="hub-right-upper" data-chair="chair-shell-orange" transform="translate(1300.8 353.8) rotate(-3) scale(0.287)"><use href="#chair-shell-orange" x="-50" y="-65" width="100" height="130"/></g><g id="leaf-054" class="node node-leaf" data-cluster="hub-right-far" data-chair="chair-wing" transform="translate(1324.8 413.1) rotate(0) scale(0.331)"><use href="#chair-wing" x="-50" y="-65" width="100" height="130"/></g><g id="leaf-055" class="node node-leaf" data-cluster="hub-right-far" data-chair="chair-dna9" transform="translate(1374.0 430.5) rotate(-4) scale(0.324)"><use href="#chair-dna9" x="-50" y="-65" width="100" height="130"/></g><g id="leaf-056" class="node node-leaf" data-cluster="hub-right-far" data-chair="chair-oda2" transform="translate(1406.0 471.6) rotate(-2) scale(0.298)"><use href="#chair-oda2" x="-50" y="-65" width="100" height="130"/></g><g id="leaf-057" class="node node-leaf" data-cluster="hub-right-far" data-chair="chair-lattice-black" transform="translate(1376.8 527.0) rotate(-3) scale(0.295)"><use href="#chair-lattice-black" x="-50" y="-65" width="100" height="130"/></g><g id="leaf-058" class="node node-leaf" data-cluster="hub-right-far" data-chair="chair-wing" transform="translate(1365.2 572.5) rotate(4) scale(0.329)"><use href="#chair-wing" x="-50" y="-65" width="100" height="130"/></g><g id="leaf-059" class="node node-leaf" data-cluster="hub-right-far" data-chair="chair-blue-light" transform="translate(1344.2 636.6) rotate(4) scale(0.283)"><use href="#chair-blue-light" x="-50" y="-65" width="100" height="130"/></g><g id="leaf-060" class="node node-leaf" data-cluster="hub-right-lower" data-chair="chair-facet-purple" transform="translate(1244.6 672.3) rotate(4) scale(0.284)"><use href="#chair-facet-purple" x="-50" y="-65" width="100" height="130"/></g><g id="leaf-061" class="node node-leaf" data-cluster="hub-right-lower" data-chair="chair-blue-light" transform="translate(1277.3 713.3) rotate(0) scale(0.363)"><use href="#chair-blue-light" x="-50" y="-65" width="100" height="130"/></g><g id="leaf-062" class="node node-leaf" data-cluster="hub-right-lower" data-chair="chair-facet-green" transform="translate(1280.4 771.9) rotate(0) scale(0.326)"><use href="#chair-facet-green" x="-50" y="-65" width="100" height="130"/></g><g id="leaf-063" class="node node-leaf" data-cluster="hub-right-lower" data-chair="chair-lattice-black" transform="translate(1222.2 792.0) rotate(4) scale(0.276)"><use href="#chair-lattice-black" x="-50" y="-65" width="100" height="130"/></g><g id="leaf-064" class="node node-leaf" data-cluster="hub-right-lower" data-chair="chair-oda2" transform="translate(1182.1 817.8) rotate(0) scale(0.282)"><use href="#chair-oda2" x="-50" y="-65" width="100" height="130"/></g><g id="leaf-065" class="node node-leaf" data-cluster="hub-right-lower" data-chair="chair-facet-purple" transform="translate(1127.2 841.8) rotate(4) scale(0.331)"><use href="#chair-facet-purple" x="-50" y="-65" width="100" height="130"/></g><g id="leaf-066" class="node node-leaf" data-cluster="hub-bottom-main" data-chair="chair-blue-light" transform="translate(967.5 720.6) rotate(0) scale(0.293)"><use href="#chair-blue-light" x="-50" y="-65" width="100" height="130"/></g><g id="leaf-067" class="node node-leaf" data-cluster="hub-bottom-main" data-chair="chair-dna9" transform="translate(997.6 780.1) rotate(-3) scale(0.326)"><use href="#chair-dna9" x="-50" y="-65" width="100" height="130"/></g><g id="leaf-068" class="node node-leaf" data-cluster="hub-bottom-main" data-chair="chair-wing" transform="translate(983.6 853.6) rotate(3) scale(0.349)"><use href="#chair-wing" x="-50" y="-65" width="100" height="130"/></g><g id="leaf-069" class="node node-leaf" data-cluster="hub-bottom-main" data-chair="chair-lattice-black" transform="translate(903.6 849.9) rotate(0) scale(0.333)"><use href="#chair-lattice-black" x="-50" y="-65" width="100" height="130"/></g><g id="leaf-070" class="node node-leaf" data-cluster="hub-bottom-main" data-chair="chair-blue-light" transform="translate(847.4 874.3) rotate(-2) scale(0.286)"><use href="#chair-blue-light" x="-50" y="-65" width="100" height="130"/></g><g id="leaf-071" class="node node-leaf" data-cluster="hub-bottom-main" data-chair="chair-ac14" transform="translate(772.2 882.1) rotate(4) scale(0.342)"><use href="#chair-ac14" x="-50" y="-65" width="100" height="130"/></g><g id="leaf-072" class="node node-leaf" data-cluster="hub-bottom-main" data-chair="chair-facet-purple" transform="translate(773.6 790.5) rotate(3) scale(0.279)"><use href="#chair-facet-purple" x="-50" y="-65" width="100" height="130"/></g><g id="leaf-073" class="node node-leaf" data-cluster="hub-bottom-left" data-chair="chair-lattice-black" transform="translate(762.2 872.8) rotate(0) scale(0.364)"><use href="#chair-lattice-black" x="-50" y="-65" width="100" height="130"/></g><g id="leaf-074" class="node node-leaf" data-cluster="hub-bottom-left" data-chair="chair-dna9" transform="translate(733.3 910.2) rotate(-2) scale(0.295)"><use href="#chair-dna9" x="-50" y="-65" width="100" height="130"/></g><g id="leaf-075" class="node node-leaf" data-cluster="hub-bottom-left" data-chair="chair-wing" transform="translate(684.4 918.0) rotate(3) scale(0.344)"><use href="#chair-wing" x="-50" y="-65" width="100" height="130"/></g><g id="leaf-076" class="node node-leaf" data-cluster="hub-bottom-left" data-chair="chair-facet-green" transform="translate(639.5 905.8) rotate(4) scale(0.296)"><use href="#chair-facet-green" x="-50" y="-65" width="100" height="130"/></g><g id="leaf-077" class="node node-leaf" data-cluster="hub-bottom-left" data-chair="chair-lattice-silver" transform="translate(589.4 884.7) rotate(-4) scale(0.312)"><use href="#chair-lattice-silver" x="-50" y="-65" width="100" height="130"/></g><g id="leaf-078" class="node node-leaf" data-cluster="hub-bottom-left" data-chair="chair-oda2" transform="translate(542.6 838.7) rotate(-2) scale(0.284)"><use href="#chair-oda2" x="-50" y="-65" width="100" height="130"/></g>
    <g id="hub-left-main" class="node node-hub" data-parent="root" data-chair="chair-dna9" transform="translate(410 485) scale(0.72)"><use href="#chair-dna9" x="-50" y="-65" width="100" height="130"/></g><g id="hub-left-upper" class="node node-hub" data-parent="hub-left-main" data-chair="chair-oda2" transform="translate(245 250) scale(0.56)"><use href="#chair-oda2" x="-50" y="-65" width="100" height="130"/></g><g id="hub-left-lower" class="node node-hub" data-parent="hub-left-main" data-chair="chair-facet-green" transform="translate(545 720) scale(0.58)"><use href="#chair-facet-green" x="-50" y="-65" width="100" height="130"/></g><g id="hub-top-main" class="node node-hub" data-parent="root" data-chair="chair-shell-pink" transform="translate(705 255) scale(0.6)"><use href="#chair-shell-pink" x="-50" y="-65" width="100" height="130"/></g><g id="hub-top-left" class="node node-hub" data-parent="hub-top-main" data-chair="chair-ac14" transform="translate(515 155) scale(0.51)"><use href="#chair-ac14" x="-50" y="-65" width="100" height="130"/></g><g id="hub-top-right" class="node node-hub" data-parent="hub-top-main" data-chair="chair-lattice-silver" transform="translate(895 165) scale(0.54)"><use href="#chair-lattice-silver" x="-50" y="-65" width="100" height="130"/></g><g id="hub-right-main" class="node node-hub" data-parent="root" data-chair="chair-lattice-gold" transform="translate(1040 475) scale(0.7)"><use href="#chair-lattice-gold" x="-50" y="-65" width="100" height="130"/></g><g id="hub-right-upper" class="node node-hub" data-parent="hub-right-main" data-chair="chair-shell-orange" transform="translate(1180 300) scale(0.53)"><use href="#chair-shell-orange" x="-50" y="-65" width="100" height="130"/></g><g id="hub-right-far" class="node node-hub" data-parent="hub-right-main" data-chair="chair-wing" transform="translate(1280 505) scale(0.51)"><use href="#chair-wing" x="-50" y="-65" width="100" height="130"/></g><g id="hub-right-lower" class="node node-hub" data-parent="hub-right-main" data-chair="chair-facet-purple" transform="translate(1160 710) scale(0.53)"><use href="#chair-facet-purple" x="-50" y="-65" width="100" height="130"/></g><g id="hub-bottom-main" class="node node-hub" data-parent="root" data-chair="chair-blue-light" transform="translate(860 730) scale(0.63)"><use href="#chair-blue-light" x="-50" y="-65" width="100" height="130"/></g><g id="hub-bottom-left" class="node node-hub" data-parent="hub-bottom-main" data-chair="chair-lattice-black" transform="translate(690 810) scale(0.52)"><use href="#chair-lattice-black" x="-50" y="-65" width="100" height="130"/></g>
    
<g id="root" class="node node-root" transform="translate(720 470)">
  <circle r="13" fill="#ffffff" stroke="#7f858a" stroke-width="1.2"/>
  <circle r="3.7" fill="#20262b"/>
  <text x="0" y="31" text-anchor="middle" class="root-title">ENDLESS FORM</text>
  <text x="0" y="43" text-anchor="middle" class="root-subtitle">CHAIR GENEALOGY</text>
</g>

  </g>
</svg>
